# xmcd
#
# Track frame offsets: 
#        150
#        17763
#        30957
#        44150
#        57925
#        72508
#        93555
#        109702
#        124189
#        143055
#
# Disc length: 2198 seconds
#
# Revision: 0
# Processed by: cddbd v1.5.2PL0 Copyright (c) Steve Scherf et al.
# Submitted via: ExactAudioCopy v1.0b3
#
DISCID=8b08940a
DTITLE=Various Artist - The Best Of R&B Soul
DYEAR=2005
DGENRE=Soul
TTITLE0=Marvin Gaye - I Heard It Through The Grapevine
TTITLE1=Sam and Dave - Soul Man
TTITLE2=Percy Sledge - When A Man Loves A Woman
TTITLE3=Aaron Neville - Tell It Like It Is
TTITLE4=Ben E. King - Stand By Me
TTITLE5=Teddy Pendergrass - Close The Door
TTITLE6=Harold Melvin and The Blue Notes - If You Don't Know Me By Now
TTITLE7=Sister Sledge - We Are Family
TTITLE8=James Brown - It's A Man's Man's Man's World
TTITLE9=Ray Charles - What'd I Say
EXTD=
EXTT0=
EXTT1=
EXTT2=
EXTT3=
EXTT4=
EXTT5=
EXTT6=
EXTT7=
EXTT8=
EXTT9=
PLAYORDER=
